<mxfile host="65bd71144e">
    <diagram id="Zks4OngOHflo0hf6Pp7J" name="Page-1">
        <mxGraphModel dx="817" dy="912" grid="1" gridSize="10" guides="1" tooltips="1" connect="1" arrows="1" fold="1" page="1" pageScale="1" pageWidth="850" pageHeight="1100" math="0" shadow="0">
            <root>
                <mxCell id="0"/>
                <mxCell id="1" parent="0"/>
                <mxCell id="2" value="Head Chef" style="shape=umlActor;verticalLabelPosition=bottom;verticalAlign=top;html=1;outlineConnect=0;" vertex="1" parent="1">
                    <mxGeometry x="30" y="310" width="70" height="150" as="geometry"/>
                </mxCell>
                <mxCell id="6" value="Server" style="shape=umlActor;verticalLabelPosition=bottom;verticalAlign=top;html=1;outlineConnect=0;" vertex="1" parent="1">
                    <mxGeometry x="30" y="680" width="70" height="150" as="geometry"/>
                </mxCell>
                <mxCell id="7" value="&lt;font style=&quot;font-size: 26px;&quot;&gt;Order&lt;/font&gt;" style="ellipse;whiteSpace=wrap;html=1;" vertex="1" parent="1">
                    <mxGeometry x="230" y="532" width="190" height="90" as="geometry"/>
                </mxCell>
                <mxCell id="9" value="Takes" style="endArrow=classic;html=1;fontSize=26;entryX=0;entryY=1;entryDx=0;entryDy=0;" edge="1" parent="1">
                    <mxGeometry width="50" height="50" relative="1" as="geometry">
                        <mxPoint x="129.9999999999999" y="730" as="sourcePoint"/>
                        <mxPoint x="267.82485578727915" y="616.8198051533936" as="targetPoint"/>
                    </mxGeometry>
                </mxCell>
                <mxCell id="10" value="Prepares Dish" style="ellipse;whiteSpace=wrap;html=1;fontSize=26;" vertex="1" parent="1">
                    <mxGeometry x="230" y="60" width="190" height="90" as="geometry"/>
                </mxCell>
                <mxCell id="11" value="" style="endArrow=classic;html=1;fontSize=26;entryX=0;entryY=0.5;entryDx=0;entryDy=0;" edge="1" parent="1">
                    <mxGeometry width="50" height="50" relative="1" as="geometry">
                        <mxPoint x="120" y="362" as="sourcePoint"/>
                        <mxPoint x="230.00000000000068" y="362" as="targetPoint"/>
                    </mxGeometry>
                </mxCell>
                <mxCell id="13" value="Cook&lt;br&gt;" style="shape=umlActor;verticalLabelPosition=bottom;verticalAlign=top;html=1;outlineConnect=0;" vertex="1" parent="1">
                    <mxGeometry x="30" y="50" width="70" height="150" as="geometry"/>
                </mxCell>
                <mxCell id="14" value="" style="endArrow=classic;html=1;fontSize=26;entryX=0;entryY=0.5;entryDx=0;entryDy=0;" edge="1" parent="1">
                    <mxGeometry width="50" height="50" relative="1" as="geometry">
                        <mxPoint x="120" y="103" as="sourcePoint"/>
                        <mxPoint x="231.00000000000068" y="103" as="targetPoint"/>
                    </mxGeometry>
                </mxCell>
                <mxCell id="17" value="Makes Recipe" style="ellipse;whiteSpace=wrap;html=1;fontSize=26;" vertex="1" parent="1">
                    <mxGeometry x="230" y="320" width="190" height="90" as="geometry"/>
                </mxCell>
                <mxCell id="18" value="" style="endArrow=classic;html=1;fontSize=26;entryX=0;entryY=1;entryDx=0;entryDy=0;" edge="1" parent="1" target="10">
                    <mxGeometry width="50" height="50" relative="1" as="geometry">
                        <mxPoint x="120" y="360" as="sourcePoint"/>
                        <mxPoint x="277.82485578727915" y="313.1801948466059" as="targetPoint"/>
                    </mxGeometry>
                </mxCell>
                <mxCell id="22" value="Relays" style="endArrow=classic;html=1;fontSize=26;entryX=0;entryY=0;entryDx=0;entryDy=0;" edge="1" parent="1" target="7">
                    <mxGeometry width="50" height="50" relative="1" as="geometry">
                        <mxPoint x="120" y="360" as="sourcePoint"/>
                        <mxPoint x="350" y="460" as="targetPoint"/>
                    </mxGeometry>
                </mxCell>
                <mxCell id="23" value="Makes" style="endArrow=classic;html=1;fontSize=26;" edge="1" parent="1" target="24">
                    <mxGeometry width="50" height="50" relative="1" as="geometry">
                        <mxPoint x="424.9999999999999" y="100" as="sourcePoint"/>
                        <mxPoint x="620" y="300" as="targetPoint"/>
                    </mxGeometry>
                </mxCell>
                <mxCell id="24" value="&lt;font style=&quot;font-size: 37px;&quot;&gt;Mess&lt;/font&gt;" style="ellipse;whiteSpace=wrap;html=1;fontSize=26;" vertex="1" parent="1">
                    <mxGeometry x="570" y="280" width="300" height="270" as="geometry"/>
                </mxCell>
                <mxCell id="25" value="Dishwasher" style="shape=umlActor;verticalLabelPosition=bottom;verticalAlign=top;html=1;outlineConnect=0;" vertex="1" parent="1">
                    <mxGeometry x="500" y="580" width="70" height="150" as="geometry"/>
                </mxCell>
                <mxCell id="26" value="Cleaner" style="shape=umlActor;verticalLabelPosition=bottom;verticalAlign=top;html=1;outlineConnect=0;" vertex="1" parent="1">
                    <mxGeometry x="600" y="710" width="70" height="150" as="geometry"/>
                </mxCell>
                <mxCell id="27" value="&lt;font style=&quot;font-size: 22px;&quot;&gt;Cleans&lt;/font&gt;" style="endArrow=classic;html=1;fontSize=37;entryX=0;entryY=1;entryDx=0;entryDy=0;" edge="1" parent="1" target="24">
                    <mxGeometry x="0.0126" width="50" height="50" relative="1" as="geometry">
                        <mxPoint x="550" y="590" as="sourcePoint"/>
                        <mxPoint x="600" y="540" as="targetPoint"/>
                        <mxPoint as="offset"/>
                    </mxGeometry>
                </mxCell>
                <mxCell id="28" value="&lt;font style=&quot;font-size: 22px;&quot;&gt;Cleans&lt;/font&gt;" style="endArrow=classic;html=1;fontSize=37;entryX=0.5;entryY=1;entryDx=0;entryDy=0;exitX=0.5;exitY=0;exitDx=0;exitDy=0;exitPerimeter=0;" edge="1" parent="1" source="26" target="24">
                    <mxGeometry x="0.0126" width="50" height="50" relative="1" as="geometry">
                        <mxPoint x="560" y="600" as="sourcePoint"/>
                        <mxPoint x="623.9339828220179" y="520.4594154601837" as="targetPoint"/>
                        <mxPoint as="offset"/>
                    </mxGeometry>
                </mxCell>
            </root>
        </mxGraphModel>
    </diagram>
</mxfile>